<svg width="60" height="60" viewBox="0 0 60 60" fill="none" xmlns="http://www.w3.org/2000/svg">
<g clip-path="url(#clip0)">
<path fill-rule="evenodd" clip-rule="evenodd" d="M12.0234 28.4678H18.2183V22.8361H12.0234V28.4678Z" fill="#46A4E0"/>
<path fill-rule="evenodd" clip-rule="evenodd" d="M4.70239 28.4678H10.8972V22.8361H4.70239L4.70239 28.4678Z" fill="#46A4E0"/>
<path fill-rule="evenodd" clip-rule="evenodd" d="M19.3447 28.4678H25.5392V22.8361H19.3447V28.4678Z" fill="#46A4E0"/>
<path fill-rule="evenodd" clip-rule="evenodd" d="M26.6658 28.4678H32.8604V22.8361H26.6658V28.4678Z" fill="#46A4E0"/>
<path fill-rule="evenodd" clip-rule="evenodd" d="M33.9868 28.4678H40.1817V22.8361H33.9868V28.4678Z" fill="#46A4E0"/>
<path fill-rule="evenodd" clip-rule="evenodd" d="M12.0234 21.7099H18.2183V16.0781H12.0234V21.7099Z" fill="#46A4E0"/>
<path fill-rule="evenodd" clip-rule="evenodd" d="M19.3447 21.7099H25.5392V16.0781H19.3447V21.7099Z" fill="#46A4E0"/>
<path fill-rule="evenodd" clip-rule="evenodd" d="M26.6658 21.7099H32.8604V16.0781H26.6658V21.7099Z" fill="#46A4E0"/>
<path fill-rule="evenodd" clip-rule="evenodd" d="M26.6658 14.9519H32.8604V9.3203H26.6658V14.9519Z" fill="#46A4E0"/>
<path fill-rule="evenodd" clip-rule="evenodd" d="M58.6326 24.5748C57.361 23.719 54.0207 23.3535 51.5919 24.0078C51.4616 21.5884 50.2137 19.5496 47.9315 17.7713L47.0869 17.2045L46.5233 18.0549C45.4169 19.7347 44.9508 21.9728 45.116 24.0078C45.2459 25.2612 45.6821 26.6706 46.5233 27.6928C45.879 28.1938 43.8748 29.1619 41.1738 29.1104L0.907544 29.1104C0.191477 33.3623 1.41776 49.5202 20.0549 49.5202C33.8912 49.5202 45.26 43.2977 50.4655 30.2441C52.1784 30.2723 56.7004 30.5511 58.9132 26.2753C58.9669 26.2036 59.4764 25.1417 59.4764 25.1417L58.6326 24.5748Z" fill="#46A4E0"/>
<mask id="mask0" mask-type="alpha" maskUnits="userSpaceOnUse" x="5" y="41" width="20" height="9">
<path d="M15.7847 41.8433C11.1901 43.437 6.24317 43.6676 5.20923 43.6216C8.65592 46.4955 14.7966 51.9193 24.9198 48.8227C23.0711 48.3203 18.7103 46.6394 15.7847 41.8433Z" fill="white"/>
</mask>
<g mask="url(#mask0)">
<mask id="mask1" mask-type="alpha" maskUnits="userSpaceOnUse" x="-32" y="-14" width="116" height="116">
<path d="M-31.3398 101.115L83.5453 101.115L83.5453 -13.7695L-31.3398 -13.7695L-31.3398 101.115Z" fill="white"/>
</mask>
<g mask="url(#mask1)">
<path fill-rule="evenodd" clip-rule="evenodd" d="M2.39355 50H27.7359V39.0275H2.39355L2.39355 50Z" fill="white"/>
</g>
</g>
<path fill-rule="evenodd" clip-rule="evenodd" d="M15.2716 40.851C13.0609 42.1127 10.4988 42.8213 7.78133 42.8213C6.40431 42.8213 5.07055 42.6384 3.80151 42.2953C4.60506 43.646 4.60506 43.646 4.60506 43.646C5.63264 43.8489 6.69423 43.9554 7.78133 43.9554C10.7098 43.9554 13.4413 43.1899 15.8207 41.8433C15.6236 41.5173 15.4403 41.1913 15.2716 40.851Z" fill="#3371C1"/>
<path fill-rule="evenodd" clip-rule="evenodd" d="M19.557 40.1161C20.6382 40.1161 21.5148 39.2337 21.5148 38.1451C21.5148 37.0565 20.6382 36.1739 19.557 36.1739C18.4754 36.1739 17.5989 37.0565 17.5989 38.1451C17.5989 39.2337 18.4754 40.1161 19.557 40.1161Z" fill="white"/>
<path fill-rule="evenodd" clip-rule="evenodd" d="M19.8514 37.5914C19.8514 37.4105 19.9407 37.2568 20.0714 37.1532C19.9179 37.0736 19.7465 37.0243 19.5622 37.0243C18.9445 37.0243 18.4434 37.5288 18.4434 38.1508C18.4434 38.7727 18.9445 39.2771 19.5622 39.2771C20.18 39.2771 20.6811 38.7727 20.6811 38.1508L20.6746 38.086C20.5958 38.1283 20.5099 38.1581 20.4145 38.1581C20.1035 38.1581 19.8514 37.9044 19.8514 37.5914Z" fill="#46505C"/>
<path fill-rule="evenodd" clip-rule="evenodd" d="M58.4657 24.4716C57.5953 23.9784 56.0111 23.6728 54.3753 23.6728C53.4212 23.6728 52.4497 23.7767 51.5919 24.0078C51.5894 23.9567 51.586 23.9059 51.5823 23.8551C52.3552 23.6509 53.2427 23.5595 54.1284 23.5595C55.8879 23.5595 57.6394 23.9201 58.4657 24.4716Z" fill="#E7E3E1"/>
<path fill-rule="evenodd" clip-rule="evenodd" d="M22.8572 49.3504C23.5256 49.2135 24.2129 49.0389 24.9198 48.8227C24.0539 48.5872 22.6368 48.0934 21.0742 47.1419C33.9463 46.8286 43.3724 40.2217 50.9068 24.6276L51.4238 23.899C51.4758 23.8839 51.5287 23.8693 51.5824 23.8551C51.5861 23.9059 51.5895 23.9568 51.592 24.0078C52.4498 23.7768 53.4214 23.6729 54.3754 23.6729C56.0112 23.6729 57.5954 23.9784 58.4658 24.4717C58.467 24.4727 58.4687 24.4736 58.4704 24.4748L59.3208 25.0513L58.8924 25.958C56.9394 29.9167 52.6983 30.214 50.7133 30.214C50.5518 30.214 50.4053 30.2121 50.2762 30.21C45.4095 42.262 35.299 48.478 22.8572 49.3504Z" fill="#E7E3E1"/>
<path fill-rule="evenodd" clip-rule="evenodd" d="M22.8572 49.3504C23.5256 49.2135 24.2129 49.0389 24.9198 48.8227C24.0539 48.5872 22.6368 48.0934 21.0742 47.1419C33.9463 46.8286 43.3724 40.2217 50.9068 24.6276L51.4238 23.899C51.4758 23.8839 51.5287 23.8693 51.5824 23.8551C51.5861 23.9059 51.5895 23.9568 51.592 24.0078C52.4498 23.7768 53.4214 23.6729 54.3754 23.6729C56.0112 23.6729 57.5954 23.9784 58.4658 24.4717C58.467 24.4727 58.4687 24.4736 58.4704 24.4748L59.3208 25.0513L58.8924 25.958C56.9394 29.9167 52.6983 30.214 50.7133 30.214C50.5518 30.214 50.4053 30.2121 50.2762 30.21C45.4095 42.262 35.299 48.478 22.8572 49.3504Z" fill="#4195CA"/>
<path fill-rule="evenodd" clip-rule="evenodd" d="M13.1291 48.6833C9.29464 47.6943 6.56793 45.8447 4.63989 43.6528C4.83453 43.6909 5.03029 43.7253 5.22734 43.7564C6.95066 45.7136 9.29627 47.3886 12.4626 48.4204C12.6808 48.5115 12.9033 48.5994 13.1291 48.6833Z" fill="#E7E3E1"/>
<path fill-rule="evenodd" clip-rule="evenodd" d="M12.4626 48.4204C9.29623 47.3886 6.95062 45.7135 5.22729 43.7564C5.28549 43.7655 5.34405 43.7744 5.40241 43.7829C7.09227 45.1953 9.39916 47.1405 12.4626 48.4204Z" fill="#E7E3E1"/>
<path fill-rule="evenodd" clip-rule="evenodd" d="M12.4626 48.4204C9.29623 47.3886 6.95062 45.7135 5.22729 43.7564C5.28549 43.7655 5.34405 43.7744 5.40241 43.7829C7.09227 45.1953 9.39916 47.1405 12.4626 48.4204Z" fill="#4195CA"/>
<path fill-rule="evenodd" clip-rule="evenodd" d="M4.54295 43.5419C0.316772 38.6444 0.00345229 32.0956 0.175802 29.5684H0.843577C0.545706 32.18 0.915121 37.7804 4.14766 42.3846C4.03173 42.3561 3.91629 42.3264 3.80134 42.2953C4.26278 43.071 4.45937 43.4013 4.54295 43.5419Z" fill="#E7E3E1"/>
<path fill-rule="evenodd" clip-rule="evenodd" d="M7.46671 42.8181C6.32512 42.795 5.21459 42.646 4.14765 42.3846C0.915111 37.7804 0.545696 32.18 0.843567 29.5684H2.42854C2.96152 35.0072 4.22522 39.6661 7.46671 42.8181Z" fill="#E7E3E1"/>
<path fill-rule="evenodd" clip-rule="evenodd" d="M7.46671 42.8181C6.32512 42.795 5.21459 42.646 4.14765 42.3846C0.915111 37.7804 0.545696 32.18 0.843567 29.5684H2.42854C2.96152 35.0072 4.22522 39.6661 7.46671 42.8181Z" fill="#4195CA"/>
<path fill-rule="evenodd" clip-rule="evenodd" d="M19.753 49.4576C17.2414 49.4576 15.0468 49.1781 13.129 48.6833C12.9032 48.5994 12.6807 48.5115 12.4625 48.4204C9.3991 47.1405 7.0922 45.1953 5.40234 43.7829C6.17889 43.8965 6.97299 43.9554 7.78125 43.9554C8.11508 43.9554 8.44595 43.9455 8.7744 43.9258C11.5351 45.9594 15.4491 47.1281 21.0129 47.1434C21.0334 47.1429 21.0537 47.1424 21.0742 47.1419C22.6367 48.0934 24.0539 48.5872 24.9197 48.8227C24.2129 49.0389 23.5256 49.2136 22.8572 49.3505C21.8376 49.422 20.8023 49.4576 19.753 49.4576Z" fill="#E7E3E1"/>
<path fill-rule="evenodd" clip-rule="evenodd" d="M19.753 49.4576C17.2414 49.4576 15.0468 49.1781 13.129 48.6833C12.9032 48.5994 12.6807 48.5115 12.4625 48.4204C9.3991 47.1405 7.0922 45.1953 5.40234 43.7829C6.17889 43.8965 6.97299 43.9554 7.78125 43.9554C8.11508 43.9554 8.44595 43.9455 8.7744 43.9258C11.5351 45.9594 15.4491 47.1281 21.0129 47.1434C21.0334 47.1429 21.0537 47.1424 21.0742 47.1419C22.6367 48.0934 24.0539 48.5872 24.9197 48.8227C24.2129 49.0389 23.5256 49.2136 22.8572 49.3505C21.8376 49.422 20.8023 49.4576 19.753 49.4576Z" fill="#E7E3E1"/>
<path fill-rule="evenodd" clip-rule="evenodd" d="M7.78133 43.9554C6.97307 43.9554 6.17896 43.8965 5.40242 43.7829C5.34406 43.7745 5.2855 43.7655 5.22731 43.7564C5.03026 43.7253 4.8345 43.6909 4.63986 43.6528C4.60719 43.6157 4.57514 43.5792 4.54313 43.5419C4.45955 43.4013 4.26296 43.071 3.80151 42.2953C3.91647 42.3264 4.03191 42.3561 4.14784 42.3846C5.21478 42.646 6.32531 42.795 7.4669 42.8181C7.87094 43.211 8.30654 43.5811 8.77448 43.9258C8.44602 43.9455 8.11515 43.9554 7.78133 43.9554Z" fill="#E7E3E1"/>
<path fill-rule="evenodd" clip-rule="evenodd" d="M7.78133 43.9554C6.97307 43.9554 6.17896 43.8965 5.40242 43.7829C5.34406 43.7745 5.2855 43.7655 5.22731 43.7564C5.03026 43.7253 4.8345 43.6909 4.63986 43.6528C4.60719 43.6157 4.57514 43.5792 4.54313 43.5419C4.45955 43.4013 4.26296 43.071 3.80151 42.2953C3.91647 42.3264 4.03191 42.3561 4.14784 42.3846C5.21478 42.646 6.32531 42.795 7.4669 42.8181C7.87094 43.211 8.30654 43.5811 8.77448 43.9258C8.44602 43.9455 8.11515 43.9554 7.78133 43.9554Z" fill="#3068AF"/>
<path fill-rule="evenodd" clip-rule="evenodd" d="M5.82861 27.3415H6.39184V23.9623H5.82861V27.3415Z" fill="#3271C1"/>
<path fill-rule="evenodd" clip-rule="evenodd" d="M7.51831 27.3415H8.08121V23.9623H7.51831V27.3415Z" fill="#3271C1"/>
<path fill-rule="evenodd" clip-rule="evenodd" d="M9.20776 27.3415H9.77083V23.9623H9.20776V27.3415Z" fill="#3271C1"/>
<path fill-rule="evenodd" clip-rule="evenodd" d="M13.1499 27.3415H13.713V23.9623H13.1499V27.3415Z" fill="#3271C1"/>
<path fill-rule="evenodd" clip-rule="evenodd" d="M14.8394 27.3415H15.4026V23.9623H14.8394V27.3415Z" fill="#3271C1"/>
<path fill-rule="evenodd" clip-rule="evenodd" d="M16.5288 27.3415H17.0919V23.9623H16.5288V27.3415Z" fill="#3271C1"/>
<path fill-rule="evenodd" clip-rule="evenodd" d="M20.4709 27.3415H21.034V23.9623H20.4709V27.3415Z" fill="#3271C1"/>
<path fill-rule="evenodd" clip-rule="evenodd" d="M22.1604 27.3415H22.7236V23.9623H22.1604V27.3415Z" fill="#3271C1"/>
<path fill-rule="evenodd" clip-rule="evenodd" d="M23.8499 27.3415H24.4131V23.9623H23.8499V27.3415Z" fill="#3271C1"/>
<path fill-rule="evenodd" clip-rule="evenodd" d="M27.7917 27.3415H28.3551V23.9623H27.7917V27.3415Z" fill="#3271C1"/>
<path fill-rule="evenodd" clip-rule="evenodd" d="M29.4817 27.3415H30.0446V23.9623H29.4817V27.3415Z" fill="#3271C1"/>
<path fill-rule="evenodd" clip-rule="evenodd" d="M31.1709 27.3415H31.7343V23.9623H31.1709V27.3415Z" fill="#3271C1"/>
<path fill-rule="evenodd" clip-rule="evenodd" d="M35.113 27.3415H35.6764V23.9623H35.113V27.3415Z" fill="#3271C1"/>
<path fill-rule="evenodd" clip-rule="evenodd" d="M36.8027 27.3415H37.3658V23.9623H36.8027V27.3415Z" fill="#3271C1"/>
<path fill-rule="evenodd" clip-rule="evenodd" d="M38.4922 27.3415H39.0553V23.9623H38.4922V27.3415Z" fill="#3271C1"/>
<path fill-rule="evenodd" clip-rule="evenodd" d="M14.8394 20.5834H15.4026V17.2045H14.8394V20.5834Z" fill="#3271C1"/>
<path fill-rule="evenodd" clip-rule="evenodd" d="M16.5288 20.5834H17.0919V17.2045H16.5288V20.5834Z" fill="#3271C1"/>
<path fill-rule="evenodd" clip-rule="evenodd" d="M20.4709 20.5834H21.034V17.2045H20.4709V20.5834Z" fill="#3271C1"/>
<path fill-rule="evenodd" clip-rule="evenodd" d="M22.1604 20.5834H22.7236V17.2045H22.1604V20.5834Z" fill="#3271C1"/>
<path fill-rule="evenodd" clip-rule="evenodd" d="M23.8499 20.5834H24.4131V17.2045H23.8499V20.5834Z" fill="#3271C1"/>
<path fill-rule="evenodd" clip-rule="evenodd" d="M27.7917 20.5834H28.3551V17.2045H27.7917V20.5834Z" fill="#3271C1"/>
<path fill-rule="evenodd" clip-rule="evenodd" d="M29.4817 20.5834H30.0446V17.2045H29.4817V20.5834Z" fill="#3271C1"/>
<path fill-rule="evenodd" clip-rule="evenodd" d="M31.1709 20.5834H31.7343V17.2045H31.1709V20.5834Z" fill="#3271C1"/>
<path fill-rule="evenodd" clip-rule="evenodd" d="M29.4817 13.8257H30.0446V10.4466H29.4817V13.8257Z" fill="#3271C1"/>
<path fill-rule="evenodd" clip-rule="evenodd" d="M27.7917 13.8257H28.3551V10.4466H27.7917V13.8257Z" fill="#3271C1"/>
<path fill-rule="evenodd" clip-rule="evenodd" d="M31.1709 13.8257H31.7343V10.4466H31.1709V13.8257Z" fill="#3271C1"/>
<path fill-rule="evenodd" clip-rule="evenodd" d="M13.1499 20.5834H13.713V17.2045H13.1499V20.5834Z" fill="#3271C1"/>
<path d="M58.4909 25.3897C58.4214 25.5318 58.3623 25.6515 58.3165 25.7415C58.292 25.79 58.272 25.8292 58.2175 25.9263C57.3812 27.5416 56.1533 28.5525 54.5962 29.1001C53.3637 29.5334 52.2461 29.6303 50.5715 29.5959C50.5549 29.5954 50.45 29.5931 50.2789 29.5898L49.891 29.5837L49.7469 29.9456C44.8203 42.3002 34.0617 48.8657 19.8589 48.8657C11.7397 48.8657 6.44154 45.7911 3.51874 40.545C2.39082 38.5207 1.67361 36.2492 1.33753 33.9241C1.10421 32.3113 1.07266 30.7465 1.20128 29.5898H3.57614V29.5941L41.3081 29.5941V29.5832C43.5387 29.558 45.6245 28.8678 46.6713 28.0545L47.1329 27.6959L46.7612 27.2439C46.0636 26.3966 45.6141 25.1551 45.4796 23.8615C45.3198 21.8876 45.7981 19.7969 46.797 18.2809L47.0468 17.9035L47.406 18.1446C49.5921 19.8527 50.7147 21.7499 50.8338 23.9514L50.8712 24.6486L51.5414 24.4681C53.7345 23.8776 56.945 24.166 58.1234 24.9588L58.5584 25.2513C58.5388 25.2925 58.5188 25.3333 58.4909 25.3897ZM4.7026 22.8361H10.8975L10.8975 28.4561H4.7026L4.7026 22.8361ZM12.0236 22.8361L18.2184 22.8361V28.4561L12.0236 28.4561L12.0236 22.8361ZM12.0236 16.0781H18.2184V21.7099L12.0236 21.7099V16.0781ZM19.3449 22.8361H25.5397V28.4561H19.3449V22.8361ZM19.3449 16.0781H25.5397V21.7099H19.3449V16.0781ZM26.6659 22.8361H32.8605V28.4561H26.6659V22.8361ZM26.6659 16.0781L32.8605 16.0781L32.8605 21.7099H26.6659V16.0781ZM26.6659 9.32029L32.8605 9.32029V14.9518L26.6659 14.9518V9.32029ZM33.9869 22.8361H40.1817V28.4561H33.9869V22.8361ZM58.749 24.0159C57.3962 23.1054 54.3115 22.7623 51.8952 23.2254C51.5834 20.9473 50.3055 18.9701 48.0645 17.2235L46.7342 16.3309L45.8588 17.6533C44.7138 19.3914 44.1776 21.7355 44.3583 23.9666C44.4915 25.246 44.8869 26.4802 45.5213 27.4577C44.5627 27.9919 42.9897 28.4292 41.3081 28.4515V21.7099H33.9869L33.9869 8.19389L25.5397 8.19389V14.9518H10.8975V21.7099H3.57614L3.57614 28.4561H0.235466L0.155958 28.9282C-0.0632197 30.2306 -0.0599676 32.1304 0.222947 34.0875C0.577891 36.5434 1.33688 38.947 2.53634 41.0997C5.66013 46.7065 11.3351 50 19.8589 50C34.3624 50 45.4726 43.3034 50.6452 30.7312C52.3922 30.7626 53.6001 30.6512 54.9679 30.1706C56.7794 29.5336 58.232 28.3406 59.2061 26.4701C59.2606 26.3799 59.3401 26.2199 59.5099 25.8736C59.5711 25.7482 59.636 25.6141 59.7014 25.4799C59.7234 25.4329 59.7447 25.3895 59.7875 25.3009L60.0002 24.8565L58.749 24.0159Z" fill="#3271C1"/>
</g>
<defs>
<clipPath id="clip0">
<rect width="60" height="60" fill="white"/>
</clipPath>
</defs>
</svg>
