<svg xmlns="http://www.w3.org/2000/svg" xmlns:xlink="http://www.w3.org/1999/xlink" width="632.39" height="360.33" viewBox="0 0 632.39 360.33"><defs><linearGradient id="2c180e52-9ad8-4b1f-a23f-13bb76ea6607" x1="462.45" y1="293.25" x2="153.8" y2="293.25" gradientUnits="userSpaceOnUse"><stop offset="0" stop-color="#fff"/><stop offset="0.13" stop-color="#bedef1"/><stop offset="0.31" stop-color="#6ab4df"/><stop offset="0.44" stop-color="#3599d3"/><stop offset="0.51" stop-color="#218fcf"/></linearGradient><linearGradient id="0247ae26-858d-4d97-8b50-55877aa51c8e" x1="142.17" y1="350.28" x2="142.17" y2="252.44" gradientUnits="userSpaceOnUse"><stop offset="0" stop-color="#fff"/><stop offset="0.07" stop-color="#dff6f9"/><stop offset="0.23" stop-color="#a3e6ed"/><stop offset="0.37" stop-color="#72d8e4"/><stop offset="0.51" stop-color="#4bcddd"/><stop offset="0.63" stop-color="#30c5d7"/><stop offset="0.74" stop-color="#1fc1d4"/><stop offset="0.83" stop-color="#19bfd3"/></linearGradient><linearGradient id="09d366f1-f45c-440b-8b1a-81a70478d4b6" x1="367.56" y1="95.52" x2="367.56" y2="288.43" gradientUnits="userSpaceOnUse"><stop offset="0" stop-color="#22b9a5" stop-opacity="0"/><stop offset="0.16" stop-color="#21b9a8" stop-opacity="0.03"/><stop offset="0.39" stop-color="#20bab0" stop-opacity="0.11"/><stop offset="0.65" stop-color="#1dbcbc" stop-opacity="0.25"/><stop offset="0.93" stop-color="#1abece" stop-opacity="0.45"/><stop offset="1" stop-color="#19bfd3" stop-opacity="0.5"/></linearGradient><linearGradient id="7807be1b-475c-4f07-8994-5813cb4cbd06" x1="448.57" y1="94.16" x2="448.57" y2="288.43" gradientUnits="userSpaceOnUse"><stop offset="0.14" stop-color="#19bfd3" stop-opacity="0"/><stop offset="0.24" stop-color="#19bfd3" stop-opacity="0.14"/><stop offset="0.36" stop-color="#19bfd3" stop-opacity="0.28"/><stop offset="0.46" stop-color="#19bfd3" stop-opacity="0.37"/><stop offset="0.54" stop-color="#19bfd3" stop-opacity="0.4"/><stop offset="0.63" stop-color="#19bfd3" stop-opacity="0.37"/><stop offset="0.74" stop-color="#19bfd3" stop-opacity="0.29"/><stop offset="0.88" stop-color="#19bfd3" stop-opacity="0.15"/><stop offset="1" stop-color="#19bfd3" stop-opacity="0"/></linearGradient><linearGradient id="7dd154ad-fd2f-4873-88ac-99c41f5957e3" x1="8079.41" y1="-181.88" x2="8079.41" y2="-238.7" gradientTransform="translate(8404.53 20.71) rotate(180)" gradientUnits="userSpaceOnUse"><stop offset="0" stop-color="#81c6ed" stop-opacity="0"/><stop offset="0.21" stop-color="#81c6ed" stop-opacity="0.03"/><stop offset="0.5" stop-color="#81c6ed" stop-opacity="0.1"/><stop offset="0.83" stop-color="#81c6ed" stop-opacity="0.23"/><stop offset="1" stop-color="#81c6ed" stop-opacity="0.3"/></linearGradient><linearGradient id="9f4f39e9-1c15-4661-a9da-9d21177302b9" x1="228.34" y1="351.33" x2="228.34" y2="254.22" gradientUnits="userSpaceOnUse"><stop offset="0" stop-color="#fff"/><stop offset="0.05" stop-color="#f4f4f4"/><stop offset="0.17" stop-color="#dbdcdd"/><stop offset="0.3" stop-color="#c9cbcc"/><stop offset="0.44" stop-color="#bec0c2"/><stop offset="0.6" stop-color="#bbbdbf"/></linearGradient><linearGradient id="8dd42f5b-51bc-4c4b-8000-edc5fa2989ac" x1="414.15" y1="202.59" x2="414.15" y2="259.41" gradientTransform="matrix(1, 0, 0, 1, 0, 0)" xlink:href="#7dd154ad-fd2f-4873-88ac-99c41f5957e3"/></defs><title>control room</title><g style="isolation:isolate"><g id="b906f018-b4dd-427b-9d7e-297642106ced" data-name="Layer 1"><polyline points="209.6 156.85 209.6 8.25 325.12 8.25 325.12 120.62" fill="none" stroke="#8cdfe9" stroke-linecap="round" stroke-linejoin="round" stroke-width="1.31"/><circle cx="140.62" cy="107.82" r="2.9" fill="none" stroke="#8cdfe9" stroke-linecap="round" stroke-linejoin="round" stroke-width="1.31"/><circle cx="154.43" cy="91.92" r="2.9" fill="none" stroke="#8cdfe9" stroke-linecap="round" stroke-linejoin="round" stroke-width="1.31"/><circle cx="171.1" cy="107.38" r="2.9" fill="none" stroke="#8cdfe9" stroke-linecap="round" stroke-linejoin="round" stroke-width="1.31"/><circle cx="188.77" cy="78.36" r="2.9" fill="none" stroke="#8cdfe9" stroke-linecap="round" stroke-linejoin="round" stroke-width="1.31"/><line x1="142.14" y1="105.35" x2="152.24" y2="93.83" fill="none" stroke="#8cdfe9" stroke-linecap="round" stroke-linejoin="round" stroke-width="1.31"/><line x1="157.27" y1="93.53" x2="169.29" y2="105.11" fill="none" stroke="#8cdfe9" stroke-linecap="round" stroke-linejoin="round" stroke-width="1.31"/><line x1="187.27" y1="80.83" x2="172.7" y2="104.97" fill="none" stroke="#8cdfe9" stroke-linecap="round" stroke-linejoin="round" stroke-width="1.31"/><line x1="128.45" y1="94.96" x2="103.3" y2="94.96" fill="none" stroke="#8cdfe9" stroke-linecap="round" stroke-linejoin="round" stroke-width="1.31"/><line x1="128.45" y1="86.39" x2="106.48" y2="86.39" fill="none" stroke="#8cdfe9" stroke-linecap="round" stroke-linejoin="round" stroke-width="1.31"/><line x1="128.45" y1="77.82" x2="100.43" y2="77.82" fill="none" stroke="#8cdfe9" stroke-linecap="round" stroke-linejoin="round" stroke-width="1.31"/><circle cx="164.7" cy="32.13" r="26.98" fill="none" stroke="#8cdfe9" stroke-linecap="round" stroke-linejoin="round" stroke-width="1.31"/><polyline points="164.69 5.15 164.69 32.13 137.72 32.13" fill="none" stroke="#8cdfe9" stroke-linecap="round" stroke-linejoin="round" stroke-width="1.31"/><line x1="143.69" y1="49.06" x2="164.7" y2="32.13" fill="none" stroke="#8cdfe9" stroke-linecap="round" stroke-linejoin="round" stroke-width="1.31"/><line x1="152.22" y1="56.06" x2="164.7" y2="32.13" fill="none" stroke="#8cdfe9" stroke-linecap="round" stroke-linejoin="round" stroke-width="1.31"/><line x1="127.99" y1="32.13" x2="108.56" y2="32.13" fill="none" stroke="#8cdfe9" stroke-linecap="round" stroke-linejoin="round" stroke-width="1.31"/><line x1="127.99" y1="40.7" x2="116.6" y2="40.7" fill="none" stroke="#8cdfe9" stroke-linecap="round" stroke-linejoin="round" stroke-width="1.31"/><line x1="127.99" y1="49.27" x2="106.02" y2="49.27" fill="none" stroke="#8cdfe9" stroke-linecap="round" stroke-linejoin="round" stroke-width="1.31"/><polygon points="243.04 24.57 247.98 19.63 252.93 24.57 243.04 24.57" fill="none" stroke="#8cdfe9" stroke-linecap="round" stroke-linejoin="round" stroke-width="1.31"/><line x1="209.6" y1="29.14" x2="325.12" y2="29.14" fill="none" stroke="#8cdfe9" stroke-linecap="round" stroke-linejoin="round" stroke-width="1.31"/><line x1="209.6" y1="15.7" x2="325.12" y2="15.7" fill="none" stroke="#8cdfe9" stroke-linecap="round" stroke-linejoin="round" stroke-width="1.31"/><line x1="215.45" y1="22.1" x2="234.79" y2="22.1" fill="none" stroke="#8cdfe9" stroke-linecap="round" stroke-linejoin="round" stroke-width="1.31"/><line x1="263.03" y1="22.1" x2="285.33" y2="22.1" fill="none" stroke="#8cdfe9" stroke-linecap="round" stroke-linejoin="round" stroke-width="1.31"/><line x1="295.91" y1="22.1" x2="318.21" y2="22.1" fill="none" stroke="#8cdfe9" stroke-linecap="round" stroke-linejoin="round" stroke-width="1.31"/><polygon points="243.04 38.65 247.98 33.71 252.93 38.65 243.04 38.65" fill="none" stroke="#8cdfe9" stroke-linecap="round" stroke-linejoin="round" stroke-width="1.31"/><line x1="209.6" y1="43.22" x2="325.12" y2="43.22" fill="none" stroke="#8cdfe9" stroke-linecap="round" stroke-linejoin="round" stroke-width="1.31"/><line x1="215.45" y1="36.18" x2="234.79" y2="36.18" fill="none" stroke="#8cdfe9" stroke-linecap="round" stroke-linejoin="round" stroke-width="1.31"/><line x1="263.03" y1="36.18" x2="285.33" y2="36.18" fill="none" stroke="#8cdfe9" stroke-linecap="round" stroke-linejoin="round" stroke-width="1.31"/><line x1="295.91" y1="36.18" x2="313.05" y2="36.18" fill="none" stroke="#8cdfe9" stroke-linecap="round" stroke-linejoin="round" stroke-width="1.31"/><polygon points="243.04 52.73 247.98 47.79 252.93 52.73 243.04 52.73" fill="none" stroke="#8cdfe9" stroke-linecap="round" stroke-linejoin="round" stroke-width="1.31"/><line x1="209.6" y1="57.3" x2="325.12" y2="57.3" fill="none" stroke="#8cdfe9" stroke-linecap="round" stroke-linejoin="round" stroke-width="1.31"/><line x1="215.45" y1="50.26" x2="234.79" y2="50.26" fill="none" stroke="#8cdfe9" stroke-linecap="round" stroke-linejoin="round" stroke-width="1.31"/><line x1="263.03" y1="50.26" x2="282.02" y2="50.26" fill="none" stroke="#8cdfe9" stroke-linecap="round" stroke-linejoin="round" stroke-width="1.31"/><line x1="295.91" y1="50.26" x2="318.21" y2="50.26" fill="none" stroke="#8cdfe9" stroke-linecap="round" stroke-linejoin="round" stroke-width="1.31"/><polygon points="243.04 75.94 247.98 80.89 252.93 75.94 243.04 75.94" fill="none" stroke="#8cdfe9" stroke-linecap="round" stroke-linejoin="round" stroke-width="1.31"/><line x1="209.6" y1="71.38" x2="325.12" y2="71.38" fill="none" stroke="#8cdfe9" stroke-linecap="round" stroke-linejoin="round" stroke-width="1.31"/><line x1="215.45" y1="64.34" x2="234.79" y2="64.34" fill="none" stroke="#8cdfe9" stroke-linecap="round" stroke-linejoin="round" stroke-width="1.31"/><line x1="263.03" y1="64.34" x2="285.33" y2="64.34" fill="none" stroke="#8cdfe9" stroke-linecap="round" stroke-linejoin="round" stroke-width="1.31"/><line x1="295.91" y1="64.34" x2="318.21" y2="64.34" fill="none" stroke="#8cdfe9" stroke-linecap="round" stroke-linejoin="round" stroke-width="1.31"/><polygon points="243.04 61.87 247.98 66.81 252.93 61.87 243.04 61.87" fill="none" stroke="#8cdfe9" stroke-linecap="round" stroke-linejoin="round" stroke-width="1.31"/><line x1="209.6" y1="85.46" x2="325.12" y2="85.46" fill="none" stroke="#8cdfe9" stroke-linecap="round" stroke-linejoin="round" stroke-width="1.31"/><line x1="215.45" y1="78.42" x2="234.79" y2="78.42" fill="none" stroke="#8cdfe9" stroke-linecap="round" stroke-linejoin="round" stroke-width="1.31"/><line x1="263.03" y1="78.42" x2="285.33" y2="78.42" fill="none" stroke="#8cdfe9" stroke-linecap="round" stroke-linejoin="round" stroke-width="1.31"/><line x1="295.91" y1="78.42" x2="312.35" y2="78.42" fill="none" stroke="#8cdfe9" stroke-linecap="round" stroke-linejoin="round" stroke-width="1.31"/><polygon points="243.04 94.97 247.98 90.03 252.93 94.97 243.04 94.97" fill="none" stroke="#8cdfe9" stroke-linecap="round" stroke-linejoin="round" stroke-width="1.31"/><line x1="209.6" y1="99.54" x2="325.12" y2="99.54" fill="none" stroke="#8cdfe9" stroke-linecap="round" stroke-linejoin="round" stroke-width="1.31"/><line x1="215.45" y1="92.5" x2="234.79" y2="92.5" fill="none" stroke="#8cdfe9" stroke-linecap="round" stroke-linejoin="round" stroke-width="1.31"/><line x1="263.03" y1="92.5" x2="285.33" y2="92.5" fill="none" stroke="#8cdfe9" stroke-linecap="round" stroke-linejoin="round" stroke-width="1.31"/><line x1="295.91" y1="92.5" x2="318.21" y2="92.5" fill="none" stroke="#8cdfe9" stroke-linecap="round" stroke-linejoin="round" stroke-width="1.31"/><polygon points="243.04 105.01 247.98 109.95 252.93 105.01 243.04 105.01" fill="none" stroke="#8cdfe9" stroke-linecap="round" stroke-linejoin="round" stroke-width="1.31"/><line x1="209.6" y1="113.62" x2="325.12" y2="113.62" fill="none" stroke="#8cdfe9" stroke-linecap="round" stroke-linejoin="round" stroke-width="1.31"/><line x1="215.45" y1="106.58" x2="234.79" y2="106.58" fill="none" stroke="#8cdfe9" stroke-linecap="round" stroke-linejoin="round" stroke-width="1.31"/><line x1="263.03" y1="106.58" x2="285.33" y2="106.58" fill="none" stroke="#8cdfe9" stroke-linecap="round" stroke-linejoin="round" stroke-width="1.31"/><line x1="295.91" y1="106.58" x2="313.05" y2="106.58" fill="none" stroke="#8cdfe9" stroke-linecap="round" stroke-linejoin="round" stroke-width="1.31"/><polygon points="243.04 123.13 247.98 118.19 252.93 123.13 243.04 123.13" fill="none" stroke="#8cdfe9" stroke-linecap="round" stroke-linejoin="round" stroke-width="1.31"/><line x1="209.6" y1="127.7" x2="295.91" y2="127.7" fill="none" stroke="#8cdfe9" stroke-linecap="round" stroke-linejoin="round" stroke-width="1.31"/><line x1="215.45" y1="120.66" x2="234.79" y2="120.66" fill="none" stroke="#8cdfe9" stroke-linecap="round" stroke-linejoin="round" stroke-width="1.31"/><line x1="263.03" y1="120.66" x2="285.33" y2="120.66" fill="none" stroke="#8cdfe9" stroke-linecap="round" stroke-linejoin="round" stroke-width="1.31"/><line x1="295.91" y1="120.66" x2="318.21" y2="120.66" fill="none" stroke="#8cdfe9" stroke-linecap="round" stroke-linejoin="round" stroke-width="1.31"/><line x1="215.45" y1="134.74" x2="234.79" y2="134.74" fill="none" stroke="#8cdfe9" stroke-linecap="round" stroke-linejoin="round" stroke-width="1.31"/><path d="M240.19,328.5,298,334.36A29.56,29.56,0,0,1,320.62,349l1.32,1.77H231.05Z" fill="#58595b"/><rect x="153.8" y="288.43" width="308.65" height="9.64" fill="url(#2c180e52-9ad8-4b1f-a23f-13bb76ea6607)"/><path d="M113.05,156.85s10,18.28-1.6,26.91c5.24,2.83,25.46,5.29,25.46,5.29l-1.85-25.75Z" fill="#775238"/><path d="M117.17,155.26c2.14,11.25,7.46,16.49,19.74,15.08,10.55-1.22,12.2-10.45,11.17-22.45-1.38-16-9.68-17.77-18.61-16.08S115,144,117.17,155.26Z" fill="#775238"/><circle cx="129.76" cy="149.37" r="18.31" fill="#775238"/><path d="M146.58,129.9s11.61,19.56-14.89,20.74a14.69,14.69,0,0,1-1.93,7.41s0,7.14-13.56,7.14c-10.56-7.95-13.32-24-4.57-32.29C125.42,119.79,146.58,129.9,146.58,129.9Z" fill="#001559"/><ellipse cx="132.41" cy="154.36" rx="4.59" ry="6.01" transform="translate(-26.48 27.42) rotate(-10.76)" fill="#775238"/><circle cx="103.45" cy="133.07" r="8.96" fill="#001559"/><path d="M163.29,171.91s17.48,30.8,20.35,36.53,4.92,17.62,4.92,17.62L168,217.57,156.87,173Z" fill="#775238"/><path d="M148.84,177.12s-36,5.24-44,7.47S91.42,207,99.42,219.44,114,245.68,112.5,254.22s48,10.35,45.06,0,.77-65.46.77-65.46Z" fill="#001559"/><path d="M188.56,226.06l-39.72-48.94s-13.63,8.6-7.63,25.47c7.92,22.3,40.81,36,40.81,36Z" fill="#001559"/><path d="M112.5,254.22C111.05,262.76,99.41,282,108,308c8.48,25.56,12.11,42.32,12.11,42.32h59.33s-19-85.71-21.9-96.06a16.12,16.12,0,0,1-.37-1.78l-44.62,1.24C112.55,253.86,112.53,254,112.5,254.22Z" fill="url(#0247ae26-858d-4d97-8b50-55877aa51c8e)"/><path d="M201.5,231.35S208,221,203.41,204.54c-5-18.17,23.93,3.57,23.93,3.57l-.06,23.3Z" fill="#a77b4f"/><path d="M223.12,219.44h0c10.86,0,16.9-2.94,18.54-14.43l1.14-12.12c.47-12.81-8.7-21.17-19.56-21.2h0a19.82,19.82,0,0,0-19.8,19.7l0,12.55C203.4,205.33,212.25,219.41,223.12,219.44Z" fill="#a77b4f"/><path d="M241.7,184.59c3.16-3.44,1.25-7.94-3-9.91-4.91-2.28-10.43-5.58-17.51-5.6-13.88,0-19.24,11.43-19.89,17.75-.85,8.24,3.1,21.61,3.1,21.61h9.49a5.11,5.11,0,0,0,5-4.28l.82-5,9.36-3,.19-6c0-2.77,1.15-7.12,6.39-6.28l6,.71Z" fill="#13406b"/><ellipse cx="223.17" cy="200.5" rx="6.41" ry="4.76" transform="translate(22.11 423.16) rotate(-89.85)" fill="#a77b4f"/><path d="M248.89,178.06s-3.63,4.57-7.19,6.53c-3.7-2.36-15.37-14.93-15.37-14.93l18.8,4-2.29,2.69Z" fill="#13406b"/><polygon points="560.52 95.52 367.61 288.43 174.59 288.43 366.89 96.14 560.52 95.52" fill="url(#09d366f1-f45c-440b-8b1a-81a70478d4b6)"/><polygon points="632.39 94.16 440.07 288.43 264.74 288.43 456.53 94.69 632.39 94.16" fill="url(#7807be1b-475c-4f07-8994-5813cb4cbd06)"/><g style="mix-blend-mode:multiply"><circle cx="503.68" cy="125.88" r="20.87" fill="#cee6f7"/><circle cx="503.68" cy="183.72" r="20.87" fill="#cee6f7"/><circle cx="503.68" cy="241.55" r="20.87" fill="#cee6f7"/></g><rect x="276.49" y="202.59" width="80.75" height="56.67" fill="#001559"/><rect x="373.76" y="202.59" width="80.79" height="56.67" fill="#001559"/><rect x="379.81" y="208.44" width="68.76" height="21.16" fill="#1d428a"/><rect x="281.16" y="208.44" width="21.01" height="46.32" fill="#1d428a"/><rect x="306.12" y="208.44" width="21.01" height="46.32" fill="#1d428a"/><rect x="331.08" y="208.44" width="21.01" height="46.32" fill="#1d428a"/><rect x="379.81" y="232.53" width="33.02" height="21.69" fill="#1d428a"/><rect x="415.62" y="232.53" width="33.02" height="21.69" fill="#0091da"/><path d="M454.5,202.59h1.41a2.1,2.1,0,0,1,2.1,2.1v52.46a2.1,2.1,0,0,1-2.1,2.1H454.5a0,0,0,0,1,0,0V202.59A0,0,0,0,1,454.5,202.59Z" fill="#fff"/><polygon points="454.5 190.93 373.76 190.93 357.24 134.25 437.99 134.25 454.5 190.93" fill="#001559"/><polygon points="357.78 190.93 277.04 190.93 260.52 134.25 341.27 134.25 357.78 190.93" fill="#001559"/><path d="M439.36,132.08H360.75l-3.51,2.17H438l16.51,56.68,1.77-1.29a2.15,2.15,0,0,0,.79-2.32L441.4,133.61A2.12,2.12,0,0,0,439.36,132.08Z" fill="#fff"/><path d="M264,132.08l-3.51,2.17h80.75l16.51,56.68,1.74-1.27a2.17,2.17,0,0,0,.8-2.37l-16.08-55.21Z" fill="#fff"/><polygon points="293.01 259.41 349.83 202.59 357.24 202.59 357.24 259.41 293.01 259.41" fill="url(#7dd154ad-fd2f-4873-88ac-99c41f5957e3)"/><path d="M357.24,202.59h1.41a2.1,2.1,0,0,1,2.1,2.1v52.46a2.1,2.1,0,0,1-2.1,2.1h-1.41a0,0,0,0,1,0,0V202.59A0,0,0,0,1,357.24,202.59Z" fill="#fff"/><path d="M182,252.3l3.08,88.38h63.26l6.83-104.11-26.67-7.73H203.22l-3.38.88A22.13,22.13,0,0,0,182,252.3Z" fill="#1d428a"/><path d="M336,280.52l-10.07-6.62-12,.92-4.72,6.37,2.64,2.4a8.24,8.24,0,0,0,5.82,2.15l18.68-.57Z" fill="#a77b4f"/><path d="M255.21,236.57l20.24,41,38.42-2.79v4.6c0,3.21-1.23,4.44-5.48,7.32,0,0-20.3,12.85-41,14.4l-29-34.76c-11-13.78,2.08-29.81,16.86-29.81Z" fill="#1d428a"/><polygon points="230.17 232.51 230.17 222.96 202 222.96 198.46 234.32 230.17 232.51" fill="#1d428a"/><path d="M269.13,311l-12.37,29.73L211.63,258a7.2,7.2,0,0,0-6.34-3.76H176.41a3.48,3.48,0,0,0-3.49,3.48v93.63h103L283.76,311Z" fill="url(#9f4f39e9-1c15-4661-a9da-9d21177302b9)"/><path d="M146.61,157.39l10.69,2.51,6,12-4.79,3a5.19,5.19,0,0,1-6.43-.75l-3.46-3.47,2.06-7.83-6.36-2.65Z" fill="#775238"/><path d="M336,288.43a11.56,11.56,0,0,0-21.71,0Z" fill="#001559"/><circle cx="499.7" cy="122.95" r="20.87" fill="#fff"/><circle cx="499.7" cy="180.79" r="20.87" fill="#fff"/><circle cx="499.7" cy="238.62" r="20.87" fill="#fff"/><polyline points="499.7 224.83 499.7 238.63 507 231.73" fill="none" stroke="#19bfd3" stroke-miterlimit="10" stroke-width="1.57"/><polyline points="499.7 167 499.7 180.79 510.06 180.79" fill="none" stroke="#19bfd3" stroke-miterlimit="10" stroke-width="1.57"/><polyline points="499.7 109.16 499.7 122.95 508.27 132.08" fill="none" stroke="#19bfd3" stroke-miterlimit="10" stroke-width="1.57"/><g opacity="0.3"><line x1="385.55" y1="232.54" x2="385.55" y2="254.22" fill="none" stroke="#4896d1" stroke-miterlimit="10" stroke-width="3.14"/><line x1="392.76" y1="232.54" x2="392.76" y2="254.22" fill="none" stroke="#4896d1" stroke-miterlimit="10" stroke-width="3.14"/><line x1="399.98" y1="232.54" x2="399.98" y2="254.22" fill="none" stroke="#4896d1" stroke-miterlimit="10" stroke-width="3.14"/><line x1="407.19" y1="232.54" x2="407.19" y2="254.22" fill="none" stroke="#4896d1" stroke-miterlimit="10" stroke-width="3.14"/></g><polyline points="414.21 252.06 422.1 244.17 426.68 248.75 436.67 238.76 442.51 244.6 450.21 236.91" fill="none" stroke="#1d2055" stroke-miterlimit="10" stroke-width="0.82"/><rect x="281.16" y="208.44" width="21.01" height="8" fill="#f7c22b"/><polygon points="397.88 186.28 376.88 186.28 362.9 139.95 383.91 139.95 397.88 186.28" fill="#1d428a"/><polygon points="422.84 186.28 401.83 186.28 387.86 139.95 408.86 139.95 422.84 186.28" fill="#1d428a"/><polygon points="447.8 186.28 426.79 186.28 412.82 139.95 433.82 139.95 447.8 186.28" fill="#1d428a"/><polygon points="390.89 163.11 369.89 163.11 362.9 139.95 383.91 139.95 390.89 163.11" fill="#0091da"/><polygon points="443.13 170.59 422.13 170.59 419.72 162.59 440.72 162.59 443.13 170.59" fill="#f7c22b"/><polygon points="301.68 186.28 280.68 186.28 266.7 139.95 287.71 139.95 301.68 186.28" fill="#1d428a"/><polygon points="351.6 186.28 305.9 186.28 291.92 139.95 337.63 139.95 351.6 186.28" fill="#0091da"/><polygon points="301.68 186.28 280.68 186.28 273.69 163.11 294.7 163.11 301.68 186.28" fill="#0091da"/><polygon points="454.55 217.75 412.88 259.41 373.76 259.41 373.76 202.59 454.5 202.59 454.55 217.75" fill="url(#8dd42f5b-51bc-4c4b-8000-edc5fa2989ac)"/><polygon points="256.76 340.68 269.13 310.95 273.01 310.95 259.77 346.87 256.76 340.68" fill="#808184"/><path d="M211.55,257.79l51.54,93.54h-5.94L205.5,254.22h0A6.92,6.92,0,0,1,211.55,257.79Z" fill="none"/><rect x="263.93" y="306.27" width="39.66" height="5.2" rx="2.6" ry="2.6" fill="#808184"/></g></g></svg>